<svg width="48" height="48" viewBox="0 0 48 48" fill="none" xmlns="http://www.w3.org/2000/svg">
<path d="M0 12C0 5.37258 5.37258 0 12 0H36C42.6274 0 48 5.37258 48 12V36C48 42.6274 42.6274 48 36 48H12C5.37258 48 0 42.6274 0 36V12Z" fill="#0F172A"/>
<path fill-rule="evenodd" clip-rule="evenodd" d="M35.928 13.7C36.6 13.3 37.2221 14.2461 37.6059 14.9531C38.5 16.6 40.6 21.7467 40.6 27.4147C40.6 31.2151 39.2523 34.9934 36.3877 37.4581C33.5563 39.8942 29.3358 41.2 23.7087 41.2C18.8534 41.2 15.1774 38.8468 12.588 36.1078C10.0134 33.3843 8.4318 30.2031 7.69589 28.2702C7.40965 27.5183 7.78594 26.6764 8.53634 26.3896C9.28675 26.1028 10.9563 25.7634 12.1868 28.2702C13.4173 30.7769 13.641 31.158 14.9834 32.9064C16.3257 34.6548 19.8834 38.286 23.7087 38.286C28.9323 38.286 32.3744 37.0701 34.4929 35.2474C36.5782 33.4532 38.2509 30.5629 38.2509 27.4147C38.2509 21.9648 36.6 16.7 35.928 15.2439C35.5908 14.5134 35.2378 14.1108 35.928 13.7Z" fill="#38BDF8"/>
<path fill-rule="evenodd" clip-rule="evenodd" d="M21.3 7.19999C21.8239 6.59004 22.9573 6.62775 23.5661 7.15258C26.2598 9.47484 28.5775 13.7144 30.0003 18.1348C31.4248 22.5608 32.0656 27.5189 31.073 31.3724C30.8723 32.1516 29.9777 32.5011 29.2 32.3C28.4223 32.0989 28.1152 31.4901 28.2569 30.6443C28.8 27.4 28.844 22.9758 27.5 18.8C26.1541 14.6185 23.7855 11.186 21.6691 9.3614C21.0603 8.83656 20.7762 7.80994 21.3 7.19999Z" fill="#38BDF8"/>
<path d="M23.7115 20.1199C22.3311 16.7525 20.759 14.1685 19.1223 12.6039C18.2274 11.7485 15.7696 9.5779 14.6478 11.2C13.8424 12.3646 15.2968 13.5915 16.7061 14.8909C18.1155 16.1904 19.8287 18.318 21.0211 21.2269C21.6097 22.6627 21.9917 24.2487 22.3085 25.8757C22.4237 26.4678 22.534 27.0885 22.6442 27.7088C22.8232 28.7163 23.002 29.7227 23.2018 30.6041C23.5275 32.0405 23.9783 33.513 24.8182 34.6081C25.7499 35.8229 27.0931 36.4873 28.8474 36.3602C31.6679 36.1559 33.6037 34.7608 34.7204 32.6629C35.7814 30.6695 36.0501 28.1522 35.928 25.6594C35.683 20.6582 33.6522 15.1317 31.9866 11.9315C31.6152 11.218 30.9076 10.8279 30.1955 11.2C29.4834 11.5721 29.6017 12.2267 29.973 12.9402C31.4768 15.8294 33.1077 20.8019 33.3289 25.3178C33.4399 27.5836 33.249 30.2237 32.5459 31.5447C31.8984 32.7612 31.1234 33.5422 29.3016 33.6742C28.5234 33.7305 27.6093 33.4792 27.1244 32.8326C26.5 32 26.3516 31.3419 26.038 29.9586C25.8488 29.124 25.6956 28.2577 25.5297 27.3196C25.4182 26.6889 25.3009 26.0257 25.1631 25.3178C24.8345 23.6303 24.4094 21.8222 23.7115 20.1199Z" fill="#38BDF8"/>
</svg>
